# xmcd
#
# Track frame offsets:
#	150
#	28255
#	47329
#	71699
#	97471
#	121505
#	141444
#	165719
#	186948
#	210273
#	234477
#	254636
#	277598
#	301582
#
# Disc length: 4331 seconds
#
# Revision: 1
# Processed by: cddbd v1.5.2PL0 Copyright (c) Steve Scherf et al.
# Submitted via: audiograbber 1.83.01
#
DISCID=c010e90e
DTITLE=Madonna - The Best 98
DYEAR=1998
DGENRE=General Pop Vocal
TTITLE0=Frozen
TTITLE1=The Power Of Goodbye
TTITLE2=To Have And Not To Hold
TTITLE3=Like A Prayer
TTITLE4=Till Death Do Us Part
TTITLE5=I'll Remember
TTITLE6=Take A Bow
TTITLE7=You'll See
TTITLE8=Drowned World
TTITLE9=Ray Of Light
TTITLE10=Nothing Really Matters
TTITLE11=Cherish
TTITLE12=Pray For Spanish Eyes
TTITLE13=This Used To Be My Playground
EXTD=
EXTT0=
EXTT1=
EXTT2=
EXTT3=
EXTT4=
EXTT5=
EXTT6=
EXTT7=
EXTT8=
EXTT9=
EXTT10=
EXTT11=
EXTT12=
EXTT13=
PLAYORDER=
